<?xml version="1.0" standalone="no"?><!DOCTYPE svg PUBLIC "-//W3C//DTD SVG 1.1//EN" "http://www.w3.org/Graphics/SVG/1.1/DTD/svg11.dtd"><svg t="1582446236383" class="icon" viewBox="0 0 1024 1024" version="1.1" xmlns="http://www.w3.org/2000/svg" p-id="2533" xmlns:xlink="http://www.w3.org/1999/xlink" width="200" height="200"><defs><style type="text/css"></style></defs><path d="M596.114286 548.571429c-32.914286 0-58.514286 25.6-58.514286 58.514285 0 32.914286 25.6 58.514286 58.514286 58.514286 32.914286 0 58.514286-25.6 58.514285-58.514286 0-32.914286-25.6-58.514286-58.514285-58.514285z" fill="#d81e06" p-id="2534"></path><path d="M512 100.571429C285.257143 100.571429 100.571429 285.257143 100.571429 512S285.257143 923.428571 512 923.428571 923.428571 738.742857 923.428571 512 738.742857 100.571429 512 100.571429z m0 217.6h175.542857V493.714286H512v-175.542857z m-27.428571 378.514285h-175.542858v-175.542857h175.542858v175.542857z m0-202.971428h-175.542858v-175.542857h175.542858V493.714286z m212.114285 232.228571L647.314286 676.571429c-14.628571 10.971429-31.085714 16.457143-51.2 16.457142-47.542857 0-85.942857-38.4-85.942857-85.942857s38.4-85.942857 85.942857-85.942857 85.942857 38.4 85.942857 85.942857c0 18.285714-5.485714 34.742857-16.457143 49.371429l49.371429 49.371428-18.285715 20.114286z" fill="#d81e06" p-id="2535"></path></svg>